<?xml version="1.0" encoding="UTF-8" standalone="no"?>
<svg
   xmlns:dc="http://purl.org/dc/elements/1.1/"
   xmlns:cc="http://creativecommons.org/ns#"
   xmlns:rdf="http://www.w3.org/1999/02/22-rdf-syntax-ns#"
   xmlns:svg="http://www.w3.org/2000/svg"
   xmlns="http://www.w3.org/2000/svg"
   version="1.1"
   id="svg4226"
   viewBox="0 0 255.99994 256"
   height="256"
   width="255.99994">
  <title
     id="title4820">Tileable Wave Pattern 2</title>
  <defs
     id="defs4228" />
  <metadata
     id="metadata4231">
    <rdf:RDF>
      <cc:Work
         rdf:about="">
        <dc:format>image/svg+xml</dc:format>
        <dc:type
           rdf:resource="http://purl.org/dc/dcmitype/StillImage" />
        <dc:title>Tileable Wave Pattern 2</dc:title>
        <dc:subject>
          <rdf:Bag>
            <rdf:li>black &amp; white</rdf:li>
            <rdf:li>black and white</rdf:li>
            <rdf:li>GrayScale</rdf:li>
            <rdf:li>gray scale</rdf:li>
            <rdf:li>grey scale</rdf:li>
            <rdf:li>GreyScale</rdf:li>
            <rdf:li>monochrome</rdf:li>
            <rdf:li>pattern</rdf:li>
            <rdf:li>seamless</rdf:li>
            <rdf:li>sine wave</rdf:li>
            <rdf:li>tile</rdf:li>
            <rdf:li>tileable</rdf:li>
            <rdf:li>wave</rdf:li>
          </rdf:Bag>
        </dc:subject>
        <dc:description>Tileable (seamless) wave pattern</dc:description>
        <dc:creator>
          <cc:Agent>
            <dc:title>Arvin61r58</dc:title>
          </cc:Agent>
        </dc:creator>
        <dc:publisher>
          <cc:Agent>
            <dc:title>Openclipart.org</dc:title>
          </cc:Agent>
        </dc:publisher>
        <dc:identifier>https://openclipart.org/</dc:identifier>
        <dc:source>https://openclipart.org/user-detail/Arvin61r58</dc:source>
        <cc:license
           rdf:resource="http://creativecommons.org/publicdomain/zero/1.0/" />
      </cc:Work>
      <cc:License
         rdf:about="http://creativecommons.org/publicdomain/zero/1.0/">
        <cc:permits
           rdf:resource="http://creativecommons.org/ns#Reproduction" />
        <cc:permits
           rdf:resource="http://creativecommons.org/ns#Distribution" />
        <cc:permits
           rdf:resource="http://creativecommons.org/ns#DerivativeWorks" />
      </cc:License>
    </rdf:RDF>
  </metadata>
  <g
     transform="translate(-244.04727,-398.1811)"
     id="layer1">
    <path
       id="path4772"
       d="m 244.04727,398.1811 0,5.37108 c 1.64278,-1.34434 2.8282,-3.19266 3.35548,-5.37108 l -3.35548,0 z m 11.0586,0 c 1.3527,6.7732 -4.38974,13.86226 -11.0586,15.08592 l 0,5.85156 c 0.96084,0.1918 1.91502,0.48343 2.84376,0.98047 11.05342,5.9156 20.98984,-4.02079 15.07422,-15.07421 -1.18918,-2.22198 -1.4193,-4.58042 -1.00392,-6.84374 l -5.85546,0 z m 15.56639,0 c -2.59813,3.1756 -3.28349,8.0316 -0.54296,13.15234 5.18992,9.69741 -7.23227,22.11957 -16.92969,16.92967 -3.28184,-1.7564 -6.45342,-2.08998 -9.15234,-1.4375 l 0,40.72655 c 3.67852,-3.01026 5.09282,-8.59509 1.91798,-14.52733 -5.18989,-9.69742 7.22836,-22.11568 16.92578,-16.92578 11.05341,5.9156 20.98981,-4.0208 15.07421,-15.07422 -5.1899,-9.69741 7.22836,-22.11567 16.92578,-16.92577 7.77044,4.1586 14.96521,0.47148 16.51171,-5.91796 l -40.73047,0 z m 48.43359,0 c 1.81176,9.07184 -9.13744,18.77494 -17.90625,14.08202 -11.05342,-5.9156 -20.9859,4.0169 -15.0703,15.07031 5.1899,9.69742 -7.23228,22.11958 -16.92969,16.92968 -11.05342,-5.9156 -20.9859,4.0169 -15.0703,15.07032 4.0008,7.47555 -2.4673,16.53635 -10.08204,17.93357 l 0,5.85156 c 0.96084,0.1918 1.91502,0.48342 2.84376,0.98048 11.05342,5.9156 20.98982,-4.02082 15.07422,-15.07422 -5.1899,-9.69741 7.22836,-22.11567 16.92577,-16.92577 11.05342,5.9156 20.98982,-4.0208 15.07422,-15.07422 -3.17046,-5.92406 -0.1324,-12.98284 7.30078,-16.96094 3.88967,-2.08163 5.68157,-2.07529 9.62499,0.0352 11.05342,5.9156 20.98982,-4.02079 15.07422,-15.07421 -1.18918,-2.22198 -1.4193,-4.58042 -1.00392,-6.84374 l -5.85546,0 z m 15.5664,0 c -2.59814,3.1756 -3.2835,8.0316 -0.54296,13.15234 5.18992,9.69741 -7.2323,22.11957 -16.9297,16.92967 -11.05342,-5.9156 -20.98591,4.0169 -15.07029,15.07032 5.18989,9.69742 -7.23228,22.11957 -16.9297,16.92968 -11.0534,-5.9156 -20.98591,4.01689 -15.0703,15.07031 5.1899,9.69742 -7.23227,22.1196 -16.92969,16.92968 -3.28184,-1.7564 -6.45342,-2.08998 -9.15234,-1.4375 l 0,40.72655 c 3.67852,-3.01026 5.09282,-8.5951 1.91798,-14.52734 -5.18989,-9.69742 7.22836,-22.11569 16.92578,-16.92577 11.05341,5.91559 20.98981,-4.02082 15.07421,-15.07422 -5.1899,-9.69742 7.22836,-22.1157 16.92578,-16.92578 11.05341,5.9156 20.98981,-4.02082 15.07421,-15.07421 -5.1899,-9.69742 7.22836,-22.11568 16.92578,-16.92578 6.85992,3.6713 14.7975,1.1992 16.3789,-5.10156 0.72404,-2.88472 0.1554,-7.24428 -1.30468,-9.97266 -5.18992,-9.69741 7.22835,-22.11567 16.92577,-16.92577 7.77044,4.1586 14.9652,0.47148 16.51172,-5.91796 l -40.73047,0 z m 48.43359,0 c 1.81176,9.07184 -9.13742,18.77494 -17.90626,14.08202 -11.0534,-5.9156 -20.98589,4.0169 -15.0703,15.07031 5.18992,9.69742 -7.23225,22.11958 -16.92969,16.92968 -11.0534,-5.9156 -20.9859,4.0169 -15.0703,15.07032 5.18992,9.69741 -7.23228,22.11959 -16.92969,16.92967 -11.05342,-5.9156 -20.9859,4.01688 -15.0703,15.07032 5.1899,9.69742 -7.23228,22.11959 -16.92969,16.92967 -11.05342,-5.91559 -20.9859,4.01688 -15.0703,15.07032 4.0008,7.47556 -2.4673,16.53636 -10.08204,17.93358 l 0,5.85156 c 0.96084,0.1918 1.91502,0.48341 2.84376,0.98047 11.0534,5.9156 20.98982,-4.02079 15.07422,-15.07421 -5.18992,-9.69742 7.22836,-22.1157 16.92577,-16.92578 11.0534,5.9156 20.98982,-4.0208 15.07422,-15.07421 -3.17048,-5.92402 -0.1324,-12.98284 7.30078,-16.96094 3.88967,-2.08164 5.68157,-2.07532 9.62499,0.0352 11.05342,5.9156 20.98982,-4.02082 15.07422,-15.07422 -5.18992,-9.69741 7.22836,-22.11567 16.92578,-16.92577 11.05341,5.9156 20.98981,-4.0208 15.07421,-15.07422 -5.18992,-9.69742 7.22836,-22.11567 16.92578,-16.92578 11.05342,5.9156 20.98981,-4.02079 15.07421,-15.07421 -1.18917,-2.22198 -1.41929,-4.58042 -1.00391,-6.84374 l -5.85546,0 z m 15.56639,0 c -2.59814,3.1756 -3.2835,8.0316 -0.54296,13.15234 5.18992,9.69741 -7.23228,22.11957 -16.92969,16.92967 -11.05342,-5.9156 -20.9859,4.0169 -15.0703,15.07032 5.18992,9.69742 -7.23228,22.11957 -16.9297,16.92968 -11.05341,-5.9156 -20.98589,4.01689 -15.07029,15.07031 5.18992,9.69742 -7.23228,22.1196 -16.9297,16.92968 -11.05342,-5.9156 -20.98591,4.01688 -15.07029,15.07031 5.18989,9.69742 -7.23228,22.1196 -16.9297,16.92968 -11.05342,-5.9156 -20.98591,4.01688 -15.0703,15.07032 5.1899,9.69741 -7.23227,22.11959 -16.92969,16.92967 -3.28186,-1.7564 -6.45342,-2.08998 -9.15234,-1.4375 l 0,40.72655 c 3.67852,-3.01026 5.09282,-8.59509 1.91798,-14.52733 -5.18989,-9.69742 7.22836,-22.1157 16.92578,-16.92578 11.05339,5.9156 20.98981,-4.02082 15.07421,-15.07422 -5.1899,-9.69741 7.22836,-22.11569 16.92578,-16.92577 11.05339,5.9156 20.98981,-4.02082 15.07421,-15.07422 -5.1899,-9.69742 7.22836,-22.11569 16.92578,-16.92577 2.72836,1.4601 7.08792,2.0287 9.97266,1.30468 6.30078,-1.5814 8.77286,-9.51898 5.10156,-16.3789 -5.18992,-9.69742 7.22835,-22.1157 16.92577,-16.92578 11.05342,5.9156 20.98982,-4.02082 15.07422,-15.07421 -5.18992,-9.69742 7.22836,-22.11568 16.92577,-16.92578 11.05342,5.9156 20.98982,-4.0208 15.07422,-15.07422 -5.18992,-9.69741 7.22836,-22.11567 16.92578,-16.92577 7.77044,4.1586 14.96521,0.47148 16.51171,-5.91796 l -40.73047,0 z m 48.43359,0 c 1.81176,9.07184 -9.13744,18.77494 -17.90625,14.08202 -11.05342,-5.9156 -20.9859,4.0169 -15.0703,15.07031 5.18992,9.69742 -7.23228,22.11958 -16.9297,16.92968 -11.05341,-5.9156 -20.98589,4.0169 -15.07029,15.07032 5.18992,9.69741 -7.23228,22.11959 -16.9297,16.92967 -11.0534,-5.9156 -20.98589,4.01688 -15.0703,15.07032 5.18992,9.69742 -7.23227,22.11959 -16.92969,16.92967 -11.0534,-5.91559 -20.9859,4.01688 -15.0703,15.07032 5.18992,9.69742 -7.23228,22.1196 -16.92969,16.92968 -11.0534,-5.9156 -20.9859,4.01688 -15.0703,15.07031 5.1899,9.69742 -7.23226,22.1196 -16.92969,16.92968 -11.0534,-5.9156 -20.9859,4.01688 -15.0703,15.07032 4.0008,7.47555 -2.46728,16.53635 -10.08204,17.93357 l 0,5.85156 c 0.96084,0.1918 1.91502,0.48342 2.84376,0.98048 11.0534,5.9156 20.98982,-4.02082 15.07422,-15.07422 -5.1899,-9.69741 7.22836,-22.11569 16.92577,-16.92577 11.0534,5.9156 20.98982,-4.02082 15.07422,-15.07422 -5.1899,-9.69742 7.22836,-22.11569 16.92577,-16.92578 11.05342,5.9156 20.98982,-4.02081 15.07422,-15.07421 -5.18992,-9.69742 7.22834,-22.1157 16.92578,-16.92578 11.05341,5.9156 20.98981,-4.02082 15.07421,-15.07421 -5.18992,-9.69742 7.22834,-22.1157 16.92578,-16.92578 11.05342,5.9156 20.98981,-4.02082 15.07421,-15.07422 -5.18991,-9.69741 7.22834,-22.11567 16.92578,-16.92577 6.85992,3.6713 14.79752,1.1992 16.3789,-5.10156 0.72402,-2.88472 0.1554,-7.24428 -1.30468,-9.97266 -5.18992,-9.69742 7.22836,-22.11567 16.92577,-16.92578 11.05344,5.9156 20.98982,-4.02079 15.07422,-15.07421 -1.18918,-2.22198 -1.4193,-4.58042 -1.00392,-6.84374 l -5.85546,0 z m 15.5664,0 c -2.59814,3.1756 -3.2835,8.0316 -0.54296,13.15234 5.18992,9.69741 -7.2323,22.11957 -16.9297,16.92967 -11.05342,-5.9156 -20.98589,4.0169 -15.07029,15.07032 5.18991,9.69742 -7.23228,22.11957 -16.9297,16.92968 -11.05342,-5.9156 -20.9859,4.01689 -15.0703,15.07031 5.18992,9.69742 -7.23228,22.1196 -16.92969,16.92968 -11.05342,-5.9156 -20.9859,4.01688 -15.0703,15.07031 5.18992,9.69742 -7.23228,22.1196 -16.9297,16.92968 -11.05341,-5.9156 -20.98589,4.01688 -15.07029,15.07032 5.18992,9.69741 -7.23228,22.11959 -16.9297,16.92967 -11.05342,-5.9156 -20.98591,4.01688 -15.07029,15.07032 5.18989,9.69742 -7.23228,22.11959 -16.9297,16.92968 -11.05342,-5.9156 -20.98591,4.01689 -15.0703,15.07031 5.1899,9.69744 -7.23227,22.1196 -16.92969,16.92968 -3.28186,-1.7564 -6.45342,-2.08998 -9.15234,-1.4375 l 0,35.35547 3.35548,0 c 0.65338,-2.69952 0.31948,-5.87328 -1.4375,-9.15626 -5.18991,-9.69742 7.22836,-22.11569 16.92578,-16.92577 11.05339,5.91559 20.98981,-4.02082 15.07421,-15.07422 -5.18992,-9.69742 7.22836,-22.1157 16.92578,-16.92578 11.05339,5.9156 20.98981,-4.02082 15.07421,-15.07421 -5.1899,-9.69742 7.22836,-22.1157 16.92578,-16.92578 11.05342,5.9156 20.98981,-4.02082 15.07422,-15.07422 -5.18992,-9.69741 7.22835,-22.11569 16.92577,-16.92577 11.05342,5.9156 20.98982,-4.02082 15.07422,-15.07422 -5.18992,-9.69742 7.22836,-22.11569 16.92577,-16.92577 11.05342,5.91559 20.98982,-4.02082 15.07422,-15.07422 -5.18992,-9.69742 7.22836,-22.1157 16.92578,-16.92578 11.05341,5.9156 20.98981,-4.02082 15.07421,-15.07421 -5.18992,-9.69742 7.22834,-22.11568 16.92578,-16.92578 11.05342,5.9156 20.98981,-4.0208 15.07422,-15.07422 -5.18992,-9.69741 7.22833,-22.11567 16.92577,-16.92577 5.12116,2.74076 9.98066,2.05182 13.15624,-0.54688 l 0,-5.37108 -37.37499,0 z m 24.52733,12.32812 c -8.21902,-0.39806 -13.87671,7.8433 -9.0703,16.82421 5.18992,9.69742 -7.23227,22.11958 -16.92969,16.92968 -11.05342,-5.9156 -20.9859,4.0169 -15.0703,15.07032 5.18992,9.69741 -7.23228,22.11959 -16.92969,16.92967 -2.72836,-1.4601 -7.08402,-2.03262 -9.96874,-1.3086 -6.30078,1.5814 -8.77286,9.519 -5.10156,16.37892 5.18992,9.69742 -7.23228,22.11959 -16.9297,16.92967 -11.05341,-5.91559 -20.98589,4.01688 -15.07029,15.07032 5.18992,9.69742 -7.23228,22.1196 -16.9297,16.92968 -11.05342,-5.9156 -20.98589,4.01688 -15.0703,15.07031 5.18992,9.69742 -7.23227,22.1196 -16.92969,16.92968 -11.05342,-5.9156 -20.9859,4.01688 -15.0703,15.07032 5.18992,9.69741 -7.23228,22.11959 -16.92969,16.92967 -11.05342,-5.9156 -20.98592,4.01692 -15.0703,15.07032 5.1899,9.69744 -7.23228,22.11959 -16.92969,16.92967 -11.05342,-5.91559 -20.98592,4.01692 -15.0703,15.07032 0.49698,0.9286 0.7847,1.88694 0.97656,2.84766 l 5.85546,0 c 1.39748,-7.6146 10.45423,-14.0828 17.92969,-10.08204 11.0534,5.9156 20.98982,-4.02082 15.07422,-15.07421 -5.18992,-9.69742 7.22836,-22.1157 16.92577,-16.92578 11.0534,5.9156 20.98982,-4.02082 15.07422,-15.07422 -5.18992,-9.69741 7.22836,-22.11569 16.92578,-16.92577 11.05341,5.9156 20.98981,-4.02082 15.07421,-15.07422 -5.18992,-9.69742 7.22836,-22.11569 16.92578,-16.92578 11.05342,5.9156 20.98981,-4.02081 15.07421,-15.07421 -5.18991,-9.69742 7.22836,-22.1157 16.92578,-16.92578 11.05342,5.9156 20.98982,-4.02082 15.07422,-15.07421 -5.18992,-9.69742 7.22836,-22.1157 16.92577,-16.92578 11.05342,5.9156 20.98982,-4.02082 15.07422,-15.07422 -5.18992,-9.69741 7.22834,-22.11567 16.92578,-16.92577 11.05341,5.9156 20.98981,-4.0208 15.07421,-15.07422 -4.69288,-8.76868 5.01028,-19.71757 14.08202,-17.90625 l 0,-5.85156 c -2.2632,0.41528 -4.6258,0.1852 -6.84766,-1.0039 -2.0725,-1.10918 -4.1033,-1.66204 -6,-1.7539 z m 12.84766,16.31639 c -6.39114,1.54508 -10.07718,8.73626 -5.91796,16.50782 5.18992,9.69742 -7.23228,22.11957 -16.9297,16.92968 -11.05341,-5.9156 -20.98589,4.01689 -15.07029,15.07031 5.18992,9.69742 -7.23228,22.1196 -16.9297,16.92968 -11.05342,-5.9156 -20.98589,4.01688 -15.07029,15.07031 5.18991,9.69742 -7.23228,22.1196 -16.9297,16.92968 -11.05342,-5.9156 -20.9859,4.01688 -15.0703,15.07032 5.18992,9.69741 -7.23228,22.11959 -16.92969,16.92967 -11.05342,-5.9156 -20.9859,4.01688 -15.0703,15.07032 5.18992,9.69742 -7.23228,22.11959 -16.9297,16.92968 -11.05341,-5.9156 -20.98589,4.01691 -15.07029,15.07031 5.18992,9.69744 -7.23228,22.1196 -16.9297,16.92968 -11.0534,-5.9156 -20.98589,4.01692 -15.07029,15.07031 5.18989,9.69744 -7.23226,22.1196 -16.9297,16.92968 -5.93266,-3.17506 -11.51724,-1.76116 -14.52734,1.91798 l 40.73047,0 c 0.65338,-2.69952 0.31948,-5.87328 -1.4375,-9.15626 -5.1899,-9.69742 7.22834,-22.11569 16.92578,-16.92577 11.05342,5.91559 20.98981,-4.0208 15.07422,-15.07422 -5.18992,-9.69742 7.22833,-22.1157 16.92577,-16.92578 11.05342,5.9156 20.98982,-4.0208 15.07422,-15.07421 -5.18992,-9.69742 7.22834,-22.1157 16.92577,-16.92578 11.05342,5.9156 20.98982,-4.0208 15.07422,-15.07422 -5.18992,-9.69741 7.22834,-22.11569 16.92578,-16.92577 11.05341,5.9156 20.98981,-4.0208 15.07421,-15.07422 -5.18992,-9.69742 7.22836,-22.11569 16.92578,-16.92577 11.05344,5.91559 20.98981,-4.0208 15.07422,-15.07422 -5.18992,-9.69742 7.22835,-22.1157 16.92577,-16.92578 5.12118,2.74076 9.98066,2.05182 13.15624,-0.54688 l 0,-40.72655 z m -12.84766,47.68359 c -8.21902,-0.39806 -13.87671,7.8433 -9.0703,16.82422 5.18992,9.69742 -7.23229,22.11959 -16.92969,16.92967 -11.05342,-5.91559 -20.9859,4.01688 -15.0703,15.07032 5.18992,9.69742 -7.2323,22.1196 -16.92969,16.92968 -11.05342,-5.9156 -20.9859,4.01688 -15.0703,15.07031 5.18992,9.69742 -7.23228,22.1196 -16.9297,16.92968 -11.05341,-5.9156 -20.98589,4.01688 -15.07029,15.07032 5.18992,9.69741 -7.23228,22.11959 -16.9297,16.92967 -11.05342,-5.9156 -20.98589,4.01692 -15.0703,15.07032 5.18992,9.69744 -7.23227,22.11959 -16.92969,16.92967 -11.05342,-5.91559 -20.9859,4.01692 -15.0703,15.07032 0.49698,0.9286 0.7847,1.88694 0.97656,2.84766 l 5.85546,0 c 1.39748,-7.6146 10.45424,-14.0828 17.9297,-10.08204 11.05341,5.9156 20.98981,-4.0208 15.07421,-15.07421 -5.18992,-9.69742 7.22836,-22.1157 16.92578,-16.92578 11.05342,5.9156 20.98981,-4.0208 15.07421,-15.07422 -5.18991,-9.69741 7.22836,-22.11569 16.92578,-16.92577 11.05342,5.9156 20.98982,-4.0208 15.07422,-15.07422 -5.18992,-9.69742 7.22836,-22.11569 16.92577,-16.92578 11.05342,5.9156 20.98982,-4.02079 15.07422,-15.07421 -5.18992,-9.69742 7.22834,-22.1157 16.92578,-16.92578 11.05341,5.9156 20.98981,-4.02082 15.07421,-15.07421 -4.69288,-8.76868 5.01028,-19.7176 14.08202,-17.90626 l 0,-5.85156 c -2.2632,0.41528 -4.62582,0.1852 -6.84766,-1.0039 -2.0725,-1.10918 -4.1033,-1.66204 -6,-1.7539 z m 12.84766,16.3164 c -6.39114,1.54508 -10.07718,8.73624 -5.91796,16.50781 5.18992,9.69742 -7.23228,22.1196 -16.9297,16.92968 -11.05341,-5.9156 -20.98589,4.01688 -15.07029,15.07032 5.18992,9.69741 -7.23228,22.11959 -16.9297,16.92967 -2.72836,-1.4601 -7.08402,-2.03262 -9.96874,-1.3086 -6.30077,1.5814 -8.77285,9.519 -5.10155,16.37892 5.18991,9.69742 -7.23228,22.11959 -16.9297,16.92968 -11.05342,-5.9156 -20.9859,4.01691 -15.0703,15.07031 5.18992,9.69744 -7.23228,22.1196 -16.92969,16.92968 -11.05342,-5.9156 -20.9859,4.01692 -15.0703,15.07031 5.18992,9.69744 -7.23228,22.1196 -16.9297,16.92968 -5.93267,-3.17506 -11.51723,-1.76116 -14.52733,1.91798 l 40.73047,0 c 0.65338,-2.69952 0.31948,-5.87328 -1.4375,-9.15626 -5.18992,-9.69742 7.22834,-22.11569 16.92577,-16.92577 6.85992,3.6713 14.79752,1.19922 16.3789,-5.10156 0.72402,-2.88472 0.1554,-7.24432 -1.30468,-9.97266 -5.18992,-9.69742 7.22834,-22.1157 16.92578,-16.92578 11.05341,5.9156 20.98981,-4.0208 15.07421,-15.07421 -5.18992,-9.69742 7.22836,-22.1157 16.92578,-16.92578 11.05344,5.9156 20.98981,-4.0208 15.07422,-15.07422 -5.18992,-9.69741 7.22835,-22.11569 16.92577,-16.92577 5.12118,2.74076 9.98066,2.05182 13.15624,-0.54688 l 0,-40.72655 z m -12.84766,47.68359 c -8.21902,-0.39806 -13.87671,7.8433 -9.0703,16.82421 5.18992,9.69742 -7.23227,22.1196 -16.92969,16.92968 -11.05342,-5.9156 -20.9859,4.01688 -15.0703,15.07032 5.18992,9.69741 -7.23228,22.11959 -16.92969,16.92967 -11.05342,-5.9156 -20.9859,4.01692 -15.0703,15.07032 5.18992,9.69744 -7.23226,22.11959 -16.9297,16.92967 -11.05341,-5.91559 -20.98589,4.01692 -15.07029,15.07032 0.49698,0.9286 0.7847,1.88694 0.97656,2.84766 l 5.85546,0 c 1.39747,-7.6146 10.45423,-14.0828 17.92969,-10.08204 2.72836,1.46012 7.08792,2.02868 9.97266,1.30468 6.30074,-1.5814 8.77286,-9.51898 5.10156,-16.37889 -5.18992,-9.69742 7.22836,-22.1157 16.92577,-16.92578 11.05342,5.9156 20.98982,-4.0208 15.07422,-15.07422 -5.18992,-9.69741 7.22836,-22.11569 16.92578,-16.92577 11.05341,5.9156 20.98981,-4.0208 15.07421,-15.07422 -4.69288,-8.76868 5.0103,-19.71759 14.08202,-17.90625 l 0,-5.85156 c -2.2632,0.41528 -4.6258,0.1852 -6.84766,-1.0039 -2.0725,-1.10918 -4.1033,-1.66204 -6,-1.7539 z m 12.84766,16.29295 c -0.27854,0.0442 -0.55908,0.0878 -0.8164,0.1524 -6.30078,1.5814 -8.77284,9.519 -5.10156,16.37892 5.18992,9.69742 -7.23228,22.11959 -16.9297,16.92968 -11.05341,-5.9156 -20.98589,4.01691 -15.07029,15.07031 5.18992,9.69744 -7.23228,22.1196 -16.9297,16.92968 -11.05342,-5.9156 -20.98589,4.01692 -15.07029,15.07031 5.18991,9.69744 -7.23228,22.1196 -16.9297,16.92968 -5.93268,-3.17506 -11.51724,-1.76116 -14.52734,1.91798 l 40.73047,0 c 0.65338,-2.69952 0.31948,-5.87328 -1.4375,-9.15626 -5.18992,-9.69742 7.22836,-22.11569 16.92578,-16.92577 2.72836,1.46012 7.08792,2.02868 9.97266,1.30468 6.30076,-1.5814 8.77286,-9.51898 5.10156,-16.3789 -5.18992,-9.69742 7.22835,-22.1157 16.92577,-16.92578 5.12118,2.74076 9.98066,2.05182 13.15624,-0.54688 l 0,-40.74999 z m -12.84766,47.70703 c -8.21902,-0.39806 -13.87671,7.84332 -9.0703,16.82422 5.18992,9.69744 -7.23227,22.11959 -16.92969,16.92967 -11.0534,-5.91559 -20.9859,4.01692 -15.0703,15.07032 0.49698,0.9286 0.7847,1.88694 0.97656,2.84766 l 5.85156,0 c 1.39724,-7.61476 10.45802,-14.08286 17.9336,-10.08204 2.72836,1.46012 7.08791,2.02868 9.97265,1.30468 6.30076,-1.5814 8.77286,-9.51898 5.10156,-16.37889 -4.69288,-8.76868 5.0103,-19.71758 14.08202,-17.90626 l 0,-5.85156 c -2.2632,0.41528 -4.6258,0.1852 -6.84766,-1.0039 -2.0725,-1.10918 -4.1033,-1.66204 -6,-1.7539 z m 12.84766,16.3164 c -6.39114,1.54508 -10.07718,8.73626 -5.91796,16.50781 5.18992,9.69744 -7.23228,22.1196 -16.9297,16.92968 -5.93265,-3.17506 -11.51721,-1.76116 -14.52733,1.91798 l 37.37499,0 0,-35.35547 z"
       style="fill:#000000" />
  </g>
</svg>
